<?xml version="1.0" standalone="no"?>
<!DOCTYPE svg PUBLIC "-//W3C//DTD SVG 20010904//EN"
 "http://www.w3.org/TR/2001/REC-SVG-20010904/DTD/svg10.dtd">
<svg version="1.0" xmlns="http://www.w3.org/2000/svg"
 width="559.000000pt" height="447.000000pt" viewBox="0 0 559.000000 447.000000"
 preserveAspectRatio="xMidYMid meet">

<g transform="translate(0.000000,447.000000) scale(0.100000,-0.100000)"
fill="#000000" stroke="none">
<path d="M2705 4031 c-81 -39 -849 -537 -869 -564 -21 -28 -21 -38 -24 -553
-2 -515 -2 -526 18 -562 16 -29 59 -61 188 -143 92 -59 282 -180 422 -270 140
-89 275 -169 300 -176 86 -27 105 -18 574 281 367 234 432 278 448 309 18 35
18 65 16 561 -3 515 -3 525 -24 553 -20 27 -760 508 -858 558 -61 31 -134 33
-191 6z m270 -304 c66 -38 161 -93 210 -122 50 -29 144 -84 210 -122 66 -39
140 -80 164 -93 24 -12 39 -25 35 -30 -5 -4 -175 -36 -379 -70 -203 -33 -557
-92 -786 -131 -228 -38 -421 -69 -427 -69 -9 0 -12 39 -12 138 l0 138 43 24
c23 13 94 53 157 90 63 37 180 104 260 150 80 46 189 110 244 142 114 66 81
72 281 -45z m625 -1146 l0 -139 -142 -83 c-79 -45 -197 -114 -263 -152 -66
-38 -160 -93 -210 -122 -49 -28 -113 -64 -141 -79 l-51 -27 -164 94 c-186 106
-462 266 -560 323 -36 22 -65 43 -65 49 1 7 1197 213 1589 274 4 0 7 -61 7
-138z"/>
<path d="M1807 1465 c-73 -25 -107 -75 -107 -153 0 -79 23 -104 175 -199 56
-35 40 -113 -24 -113 -36 0 -61 28 -61 68 0 31 -1 32 -45 32 l-45 0 0 -40 c0
-50 19 -89 60 -123 109 -92 278 21 241 161 -13 45 -46 79 -122 121 -31 17 -64
40 -73 50 -25 27 -17 79 15 103 22 16 29 17 52 7 28 -13 35 -28 39 -89 3 -33
5 -35 42 -38 53 -5 60 6 51 73 -5 45 -14 65 -42 96 -20 22 -47 42 -62 45 -14
3 -33 7 -41 9 -8 2 -32 -2 -53 -10z"/>
<path d="M2661 1469 c-96 -20 -148 -127 -107 -222 16 -39 44 -64 111 -102 95
-53 112 -81 77 -125 -39 -48 -112 -14 -112 51 0 28 -2 29 -45 29 -45 0 -45 0
-45 -35 0 -49 22 -96 59 -128 110 -92 274 12 247 158 -9 44 -53 88 -127 125
-61 32 -89 61 -89 96 0 34 32 67 65 67 40 0 65 -34 65 -89 l0 -44 45 0 45 0 0
50 c0 115 -85 191 -189 169z"/>
<path d="M3013 1469 c-44 -13 -90 -63 -104 -111 -6 -25 -9 -102 -7 -193 3
-145 4 -153 30 -192 50 -76 151 -93 218 -36 56 46 60 65 60 256 0 164 -1 176
-22 207 -44 64 -108 89 -175 69z m89 -106 c16 -14 18 -34 18 -173 0 -137 -2
-159 -17 -173 -29 -25 -63 -26 -87 -1 -13 13 -16 43 -16 174 0 131 3 161 16
174 20 21 63 20 86 -1z"/>
<path d="M2070 1190 l0 -280 130 0 130 0 0 45 0 44 -82 3 -83 3 -3 233 -2 232
-45 0 -45 0 0 -280z"/>
<path d="M2390 1190 l0 -280 45 0 45 0 0 280 0 280 -45 0 -45 0 0 -280z"/>
<path d="M3280 1190 l0 -280 45 0 44 0 3 118 3 117 83 5 c45 3 82 8 82 13 0 4
0 25 0 47 l0 40 -85 0 -86 0 3 63 3 62 83 3 82 3 0 44 0 45 -130 0 -130 0 0
-280z"/>
<path d="M3590 1426 l0 -45 53 -3 52 -3 3 -232 2 -233 45 0 45 0 2 233 3 232
53 3 52 3 0 45 0 44 -155 0 -155 0 0 -44z"/>
</g>
</svg>
